<mxfile host="app.diagrams.net" agent="Mozilla/5.0 (Windows NT 10.0; Win64; x64) AppleWebKit/537.36 (KHTML, like Gecko) Chrome/130.0.0.0 Safari/537.36" version="24.8.4">
  <diagram name="Page-1" id="x28uPMsH1JGmDxHZidxt">
    <mxGraphModel dx="2219" dy="948" grid="1" gridSize="10" guides="1" tooltips="1" connect="1" arrows="1" fold="1" page="1" pageScale="1" pageWidth="827" pageHeight="1169" math="0" shadow="0">
      <root>
        <mxCell id="0" />
        <mxCell id="1" parent="0" />
        <mxCell id="N1Oh-uyHAGIqfLrGnz5r-4" value="" style="edgeStyle=orthogonalEdgeStyle;rounded=0;orthogonalLoop=1;jettySize=auto;html=1;" edge="1" parent="1" source="N1Oh-uyHAGIqfLrGnz5r-2" target="N1Oh-uyHAGIqfLrGnz5r-3">
          <mxGeometry relative="1" as="geometry" />
        </mxCell>
        <mxCell id="N1Oh-uyHAGIqfLrGnz5r-6" style="edgeStyle=orthogonalEdgeStyle;rounded=0;orthogonalLoop=1;jettySize=auto;html=1;entryX=0.5;entryY=0;entryDx=0;entryDy=0;" edge="1" parent="1" source="N1Oh-uyHAGIqfLrGnz5r-2" target="N1Oh-uyHAGIqfLrGnz5r-5">
          <mxGeometry relative="1" as="geometry" />
        </mxCell>
        <mxCell id="N1Oh-uyHAGIqfLrGnz5r-2" value="start&amp;nbsp;" style="ellipse;whiteSpace=wrap;html=1;" vertex="1" parent="1">
          <mxGeometry x="340" y="170" width="120" height="80" as="geometry" />
        </mxCell>
        <mxCell id="N1Oh-uyHAGIqfLrGnz5r-8" value="" style="edgeStyle=orthogonalEdgeStyle;rounded=0;orthogonalLoop=1;jettySize=auto;html=1;" edge="1" parent="1" source="N1Oh-uyHAGIqfLrGnz5r-3" target="N1Oh-uyHAGIqfLrGnz5r-7">
          <mxGeometry relative="1" as="geometry" />
        </mxCell>
        <mxCell id="N1Oh-uyHAGIqfLrGnz5r-3" value="float a_float = 1000.0f ,&lt;div&gt;&amp;nbsp;b_float = 0.0001f;&lt;/div&gt;" style="shape=parallelogram;perimeter=parallelogramPerimeter;whiteSpace=wrap;html=1;fixedSize=1;" vertex="1" parent="1">
          <mxGeometry x="110" y="310" width="160" height="60" as="geometry" />
        </mxCell>
        <mxCell id="N1Oh-uyHAGIqfLrGnz5r-14" value="" style="edgeStyle=orthogonalEdgeStyle;rounded=0;orthogonalLoop=1;jettySize=auto;html=1;" edge="1" parent="1" source="N1Oh-uyHAGIqfLrGnz5r-5" target="N1Oh-uyHAGIqfLrGnz5r-13">
          <mxGeometry relative="1" as="geometry" />
        </mxCell>
        <mxCell id="N1Oh-uyHAGIqfLrGnz5r-5" value="double a_double = 1000.0 ,&lt;div&gt;&amp;nbsp;b_double = 0.0001;&lt;/div&gt;" style="shape=parallelogram;perimeter=parallelogramPerimeter;whiteSpace=wrap;html=1;fixedSize=1;" vertex="1" parent="1">
          <mxGeometry x="520" y="310" width="190" height="60" as="geometry" />
        </mxCell>
        <mxCell id="N1Oh-uyHAGIqfLrGnz5r-10" value="" style="edgeStyle=orthogonalEdgeStyle;rounded=0;orthogonalLoop=1;jettySize=auto;html=1;" edge="1" parent="1" source="N1Oh-uyHAGIqfLrGnz5r-7" target="N1Oh-uyHAGIqfLrGnz5r-9">
          <mxGeometry relative="1" as="geometry" />
        </mxCell>
        <mxCell id="N1Oh-uyHAGIqfLrGnz5r-7" value="float numerator_float = pow(a_float + b_float,3) - pow(a_float, 3);" style="whiteSpace=wrap;html=1;" vertex="1" parent="1">
          <mxGeometry x="130" y="450" width="120" height="60" as="geometry" />
        </mxCell>
        <mxCell id="N1Oh-uyHAGIqfLrGnz5r-12" value="" style="edgeStyle=orthogonalEdgeStyle;rounded=0;orthogonalLoop=1;jettySize=auto;html=1;" edge="1" parent="1" source="N1Oh-uyHAGIqfLrGnz5r-9" target="N1Oh-uyHAGIqfLrGnz5r-11">
          <mxGeometry relative="1" as="geometry" />
        </mxCell>
        <mxCell id="N1Oh-uyHAGIqfLrGnz5r-9" value="float denominator_float = 3*a_float*pow(b_float, 3) + pow(b_float , 3) + 3*pow(a_float,2)*b_float;" style="whiteSpace=wrap;html=1;" vertex="1" parent="1">
          <mxGeometry x="115" y="590" width="150" height="70" as="geometry" />
        </mxCell>
        <mxCell id="N1Oh-uyHAGIqfLrGnz5r-21" style="edgeStyle=orthogonalEdgeStyle;rounded=0;orthogonalLoop=1;jettySize=auto;html=1;entryX=0.5;entryY=0;entryDx=0;entryDy=0;" edge="1" parent="1" source="N1Oh-uyHAGIqfLrGnz5r-11" target="N1Oh-uyHAGIqfLrGnz5r-19">
          <mxGeometry relative="1" as="geometry" />
        </mxCell>
        <mxCell id="N1Oh-uyHAGIqfLrGnz5r-11" value="float result_float = numerator_float/denominator_float;" style="whiteSpace=wrap;html=1;" vertex="1" parent="1">
          <mxGeometry x="70" y="740" width="240" height="70" as="geometry" />
        </mxCell>
        <mxCell id="N1Oh-uyHAGIqfLrGnz5r-16" value="" style="edgeStyle=orthogonalEdgeStyle;rounded=0;orthogonalLoop=1;jettySize=auto;html=1;" edge="1" parent="1" source="N1Oh-uyHAGIqfLrGnz5r-13" target="N1Oh-uyHAGIqfLrGnz5r-15">
          <mxGeometry relative="1" as="geometry" />
        </mxCell>
        <mxCell id="N1Oh-uyHAGIqfLrGnz5r-13" value="double numerator_double = pow(a_double + b_double, 3) - pow(a_double, 3);" style="whiteSpace=wrap;html=1;" vertex="1" parent="1">
          <mxGeometry x="527.5" y="450" width="175" height="60" as="geometry" />
        </mxCell>
        <mxCell id="N1Oh-uyHAGIqfLrGnz5r-18" value="" style="edgeStyle=orthogonalEdgeStyle;rounded=0;orthogonalLoop=1;jettySize=auto;html=1;" edge="1" parent="1" source="N1Oh-uyHAGIqfLrGnz5r-15" target="N1Oh-uyHAGIqfLrGnz5r-17">
          <mxGeometry relative="1" as="geometry" />
        </mxCell>
        <mxCell id="N1Oh-uyHAGIqfLrGnz5r-15" value="double denominator_double = 3*a_double*pow(b_double, 3) + pow(b_double, 3) + 3*pow(a_double, 2)*b_double;" style="whiteSpace=wrap;html=1;" vertex="1" parent="1">
          <mxGeometry x="502.5" y="590" width="225" height="60" as="geometry" />
        </mxCell>
        <mxCell id="N1Oh-uyHAGIqfLrGnz5r-20" value="" style="edgeStyle=orthogonalEdgeStyle;rounded=0;orthogonalLoop=1;jettySize=auto;html=1;" edge="1" parent="1" source="N1Oh-uyHAGIqfLrGnz5r-17" target="N1Oh-uyHAGIqfLrGnz5r-19">
          <mxGeometry relative="1" as="geometry" />
        </mxCell>
        <mxCell id="N1Oh-uyHAGIqfLrGnz5r-17" value="double result_double = numerator_double / denominator_double;" style="whiteSpace=wrap;html=1;" vertex="1" parent="1">
          <mxGeometry x="537.5" y="745" width="155" height="60" as="geometry" />
        </mxCell>
        <mxCell id="N1Oh-uyHAGIqfLrGnz5r-24" value="" style="edgeStyle=orthogonalEdgeStyle;rounded=0;orthogonalLoop=1;jettySize=auto;html=1;" edge="1" parent="1" source="N1Oh-uyHAGIqfLrGnz5r-19" target="N1Oh-uyHAGIqfLrGnz5r-23">
          <mxGeometry relative="1" as="geometry" />
        </mxCell>
        <mxCell id="N1Oh-uyHAGIqfLrGnz5r-19" value="cout &amp;lt;&amp;lt; &quot;result for float : &quot; &amp;lt;&amp;lt; result_float &amp;lt;&amp;lt; endl;&lt;div&gt;&amp;nbsp;cout &amp;lt;&amp;lt; &quot;result for double : &quot; &amp;lt;&amp;lt; result_double &amp;lt;&amp;lt; endl;&lt;/div&gt;" style="shape=trapezoid;perimeter=trapezoidPerimeter;whiteSpace=wrap;html=1;fixedSize=1;" vertex="1" parent="1">
          <mxGeometry x="317.5" y="870" width="210" height="100" as="geometry" />
        </mxCell>
        <mxCell id="N1Oh-uyHAGIqfLrGnz5r-23" value="end" style="rounded=1;whiteSpace=wrap;html=1;" vertex="1" parent="1">
          <mxGeometry x="362.5" y="1070" width="120" height="60" as="geometry" />
        </mxCell>
      </root>
    </mxGraphModel>
  </diagram>
</mxfile>
